# xmcd
#
# Track frame offsets: 
#        150
#        20410
#        54732
#        69107
#        96667
#        126375
#        167737
#        198427
#        226297
#
# Disc length: 3248 seconds
#
# Revision: 4
# Processed by: cddbd v1.5.2PL0 Copyright (c) Steve Scherf et al.
# Submitted via: ExactAudioCopy v0.99pb4
#
DISCID=7b0cae09
DTITLE=Oliver Serano - Alve - Frieden  Shanti  Peace
DYEAR=1987
DGENRE=New Age
TTITLE0=Morning Joy
TTITLE1=To Her
TTITLE2=Naf Dhun
TTITLE3=Hazarat Inayat Love
TTITLE4=Clear Wind
TTITLE5=When The Moonflower Is Chanting
TTITLE6=Crystal Gandharva
TTITLE7=Into Your Infinity
TTITLE8=Shanti
EXTD=YEAR: 1987
EXTT0=
EXTT1=
EXTT2=
EXTT3=
EXTT4=
EXTT5=
EXTT6=
EXTT7=
EXTT8=
PLAYORDER=
